<svg xmlns="http://www.w3.org/2000/svg" width="249" height="159" viewBox="0 0 249 159" version="1.1">
	<path d="M 101.500 21.441 C 70.970 27.503, 44.499 47.395, 30.556 74.755 C 22.856 89.865, 20 103.175, 20 123.958 L 20 139 123.955 139 L 227.909 139 228.598 135.329 C 229.679 129.566, 228.162 107.805, 226.068 99.037 C 217.625 63.690, 189.941 34.853, 154 23.969 C 144.267 21.022, 142.222 20.763, 126 20.420 C 113.730 20.161, 106.408 20.466, 101.500 21.441 M 100.500 34.963 C 96.650 35.928, 90.998 37.682, 87.940 38.860 C 76.657 43.206, 61.476 53.887, 62.269 56.921 C 63.200 60.482, 80.874 83.966, 88.864 92.260 C 96.536 100.223, 111.901 112.015, 114.592 112.004 C 117.136 111.994, 120.227 94.712, 120.227 80.500 C 120.227 69.371, 119.223 62.064, 115.316 44.750 C 112.267 31.235, 113.120 31.799, 100.500 34.963 M 134.024 36.913 C 128.877 56.025, 126.546 76.499, 127.965 90.110 C 129.183 101.779, 130.748 110.148, 131.935 111.335 C 133.158 112.558, 142.751 106.612, 151.596 99.149 C 159.769 92.254, 168.634 81.864, 178.806 67.260 L 185.938 57.020 183.719 54.910 C 178.183 49.648, 163.811 41.060, 155 37.751 C 150.502 36.062, 138.575 33.043, 136.289 33.015 C 135.622 33.007, 134.603 34.761, 134.024 36.913 M 41.741 81.750 C 39.233 87.112, 36.482 93.886, 35.629 96.802 C 33.767 103.162, 31.495 122.243, 32.338 124.439 C 32.866 125.814, 37.287 126, 69.469 126 C 89.561 126, 105.996 125.662, 105.990 125.250 C 105.985 124.838, 101.147 118.324, 95.240 110.776 C 84.657 97.252, 84.273 96.894, 68.980 86.276 C 50.174 73.218, 48.315 72, 47.186 72 C 46.700 72, 44.249 76.388, 41.741 81.750 M 188.477 78.813 C 174.142 88.376, 167.533 93.707, 158.936 102.640 C 151.322 110.553, 142 122.792, 142 124.877 C 142 125.687, 152.176 126, 178.531 126 C 211.587 126, 215.123 125.843, 215.697 124.347 C 216.799 121.477, 214.128 103.317, 211.383 95.012 C 208.700 86.895, 201.317 72.831, 199.500 72.376 C 198.950 72.239, 193.989 75.135, 188.477 78.813" stroke="none" fill="currentColor" fill-rule="evenodd"/>
</svg>